 
http://www.imdb.com/title/tt1300854/


[b]Marvel's "Iron Man 3" pits brash-but-brilliant industrialist Tony Stark/Iron Man against an enemy whose reach knows no bounds. When Stark finds his personal world destroyed at his enemy's hands, he embarks on a harrowing quest to find those responsible. This journey, at every turn, will test his mettle. With his back against the wall, Stark is left to survive by his own devices, relying on his ingenuity and instincts to protect those closest to him. As he fights his way back, Stark discovers the answer to the question that has secretly haunted him: does the man make the suit or does the suit make the man? 



Director:
 Shane Black 

Writers:
 Drew Pearce (screenplay), Shane Black (screenplay)

Stars:
 Robert Downey Jr., Gwyneth Paltrow, Guy Pearce

Genres:
  Action |  Sci-Fi |  Thriller 

Country:
 USA | China 

Language:
 English 
[/b]




Format                                   : AVI
Format/Info                              : Audio Video Interleave
File size                                : 1.45 GiB
Duration                                 : 2h 13mn
Overall bit rate                         : 1 553 Kbps
Writing application                      : Lavf51.12.1
Writing library                          : VirtualDub build 32842/release

Video
ID                                       : 0
Format                                   : AVC
Format/Info                              : Advanced Video Codec
Format profile                           : Baseline@L3.1
Format settings, CABAC                   : No
Format settings, ReFrames                : 1 frame
Format settings, GOP                     : M=1, N=12
Codec ID                                 : H264
Duration                                 : 2h 13mn
Bit rate                                 : 1 349 Kbps
Width                                    : 1 280 pixels
Height                                   : 720 pixels
Display aspect ratio                     : 16:9
Frame rate mode                          : Variable
Frame rate                               : 29.970 fps
Color space                              : YUV
Chroma subsampling                       : 4:2:0
Bit depth                                : 8 bits
Scan type                                : Progressive
Bits/(Pixel*Frame)                       : 0.049
Stream size                              : 1.26 GiB (87%)

Audio
ID                                       : 1
Format                                   : AC-3
Format/Info                              : Audio Coding 3
Mode extension                           : CM (complete main)
Format settings, Endianness              : Big
Codec ID                                 : 2000
Duration                                 : 2h 13mn
Bit rate mode                            : Constant
Bit rate                                 : 192 Kbps
Channel(s)                               : 2 channels
Channel positions                        : Front: L R
Sampling rate                            : 48.0 KHz
Bit depth                                : 16 bits
Compression mode                         : Lossy
Stream size                              : 183 MiB (12%)
Alignment                                : Split accross interleaves
Interleave, duration                     : 33 ms (1.00 video frame)
Interleave, preload duration             : 500 ms




    	http://addpix.net/viewer.php?file=46357680626395645893.jpg
    	http://addpix.net/viewer.php?file=79044182833417897055.jpg
    	http://addpix.net/viewer.php?file=59099834017412246304.jpg
    	http://addpix.net/viewer.php?file=80351908415505943423.jpg
    	http://addpix.net/viewer.php?file=05179914612959977700.jpg
    	http://addpix.net/viewer.php?file=84974466147644636814.jpg
    	http://addpix.net/viewer.php?file=87779683892574137211.jpg